<?xml version="1.0" standalone="no"?>
<!DOCTYPE svg PUBLIC "-//W3C//DTD SVG 20010904//EN"
 "http://www.w3.org/TR/2001/REC-SVG-20010904/DTD/svg10.dtd">
<svg version="1.0" xmlns="http://www.w3.org/2000/svg"
 width="1024.000000pt" height="1024.000000pt" viewBox="0 0 1024.000000 1024.000000"
 preserveAspectRatio="xMidYMid meet">

<g transform="translate(0.000000,1024.000000) scale(0.100000,-0.100000)"
fill="#000000" stroke="none">
<path d="M5040 8703 c-676 -46 -1386 -299 -1913 -679 -80 -58 -235 -181 -304
-241 l-63 -55 48 -38 c27 -21 64 -56 84 -79 l36 -42 243 3 244 3 62 -29 c72
-33 135 -95 166 -164 32 -71 29 -179 -7 -253 -31 -66 -97 -132 -164 -162 -46
-22 -54 -22 -717 -25 l-670 -3 -98 -192 c-91 -180 -113 -233 -189 -447 -72
-203 -121 -414 -155 -666 -21 -161 -24 -669 -4 -842 l13 -113 -81 -84 c-279
-291 -395 -572 -394 -960 0 -280 83 -544 238 -753 144 -195 397 -382 630 -465
169 -60 241 -68 615 -72 l345 -2 90 -53 c50 -29 122 -74 160 -100 202 -135
530 -288 820 -383 197 -65 278 -86 465 -121 255 -48 384 -60 695 -60 307 -1
411 7 645 50 223 41 680 176 831 245 l68 32 -29 41 c-94 133 -46 314 105 394
l50 27 1005 0 c553 0 1021 4 1040 9 51 13 76 32 106 83 22 38 26 54 22 98 -6
68 -34 107 -103 140 -48 24 -62 26 -122 21 -38 -3 -255 -8 -483 -12 -462 -8
-495 -4 -564 57 -124 108 -90 326 61 401 44 21 64 23 251 28 l203 5 108 235
c148 319 215 534 300 955 81 406 109 890 67 1170 -25 172 -81 448 -105 520 -5
17 -22 71 -37 120 -71 237 -232 585 -376 812 -185 293 -503 640 -783 854 -92
71 -378 256 -495 321 -339 188 -710 323 -1115 406 -254 52 -622 81 -845 65z
m1000 -516 c13 -7 38 -32 55 -55 l30 -44 -2 -254 c-1 -246 -2 -255 -25 -296
-43 -76 -157 -105 -233 -58 -62 38 -72 79 -78 305 -5 231 2 303 35 350 46 67
139 89 218 52z m845 -296 c74 -33 116 -108 102 -179 -3 -15 -33 -93 -66 -172
-68 -163 -99 -203 -169 -215 -58 -10 -140 28 -172 80 -33 54 -28 104 25 242
80 208 86 216 155 246 47 21 77 20 125 -2z m-1660 -72 c94 -24 174 -136 160
-223 -29 -184 -253 -239 -369 -93 -29 36 -31 45 -31 116 0 68 3 82 27 117 28
40 69 70 116 84 38 12 47 11 97 -1z m-795 -280 c37 -21 288 -284 323 -340 20
-31 24 -99 9 -140 -21 -54 -128 -119 -173 -105 -8 2 -27 7 -44 11 -35 8 -301
264 -346 334 -58 89 -26 193 76 249 34 19 113 14 155 -9z m3095 -263 c92 -70
54 -220 -60 -242 -49 -9 -83 2 -121 40 -46 46 -53 94 -23 153 44 84 130 105
204 49z m-1360 -117 c258 -39 512 -141 704 -282 80 -58 279 -263 354 -364 116
-155 196 -330 254 -553 20 -77 26 -128 30 -271 6 -189 -4 -295 -38 -426 -51
-195 -108 -325 -209 -472 -118 -173 -212 -267 -392 -394 -106 -76 -323 -177
-379 -177 -10 0 -34 21 -54 47 -140 183 -318 316 -530 396 -85 32 -235 66
-291 67 l-42 0 -6 48 c-10 69 -35 176 -64 267 -29 96 -132 307 -191 394 -130
191 -299 365 -454 468 -84 55 -256 146 -309 163 -21 6 -38 15 -38 19 0 25 58
172 105 266 139 279 393 523 713 684 238 120 546 164 837 120z m-2060 -342
c52 -29 93 -90 101 -149 6 -39 2 -57 -20 -101 -53 -109 -159 -145 -266 -90
-46 23 -60 37 -83 83 -23 46 -27 62 -22 100 17 114 88 179 195 179 39 1 67 -6
95 -22z m4023 -34 c45 -37 82 -98 82 -138 0 -16 -9 -49 -19 -72 -16 -35 -39
-54 -153 -129 -229 -151 -275 -167 -356 -125 -97 49 -127 156 -68 243 19 29
200 158 321 229 67 40 137 37 193 -8z m-5711 -592 c74 -34 131 -138 117 -212
-16 -80 -59 -134 -134 -168 -61 -28 -106 -26 -169 5 -60 30 -105 90 -116 152
-7 46 15 122 49 166 54 71 166 96 253 57z m6046 -324 c21 -15 44 -42 53 -59
42 -82 4 -197 -79 -237 -40 -19 -60 -21 -277 -21 -213 0 -237 2 -274 20 -97
47 -123 174 -55 271 39 56 60 59 340 57 l256 -3 36 -28z m-4266 -146 c227 -44
421 -156 605 -347 114 -119 130 -141 182 -249 83 -170 111 -273 122 -443 8
-120 -14 -285 -55 -410 -16 -48 -28 -88 -27 -89 1 -1 44 14 96 34 242 91 454
82 678 -27 93 -46 117 -64 203 -149 83 -82 104 -109 138 -181 55 -116 75 -223
68 -364 -9 -188 -68 -332 -190 -463 -105 -112 -217 -181 -372 -229 -58 -18
-124 -19 -1680 -19 l-1620 0 -79 23 c-232 67 -418 216 -524 421 -119 229 -146
430 -87 655 80 304 313 540 625 632 51 15 97 19 210 19 141 0 194 -9 304 -51
11 -4 14 13 15 95 2 119 32 296 65 384 101 269 279 482 521 625 122 72 210
102 420 146 61 12 291 5 382 -13z m3848 -675 c216 -78 255 -110 255 -206 0
-111 -96 -195 -204 -177 -18 3 -107 31 -197 63 -140 49 -169 63 -201 95 -102
106 -21 287 129 289 28 0 103 -22 218 -64z m-358 -726 c93 -56 88 -186 -9
-236 -85 -44 -200 40 -185 134 11 66 71 122 132 122 17 0 44 -9 62 -20z m682
-340 c184 -94 114 -370 -94 -370 -112 0 -191 87 -183 202 10 142 156 230 277
168z m-1319 -42 c48 -24 139 -135 214 -260 31 -53 37 -70 33 -106 -6 -55 -46
-114 -92 -137 -45 -21 -130 -17 -169 8 -29 19 -189 248 -212 303 -21 49 -7
100 43 155 55 60 113 72 183 37z"/>
<path d="M2415 3814 c-103 -53 -143 -167 -96 -270 29 -65 110 -114 185 -114
54 0 132 44 163 92 24 37 28 53 28 114 0 61 -4 76 -28 111 -39 56 -91 83 -163
83 -34 0 -72 -7 -89 -16z"/>
</g>
</svg>
